<svg version="1.1" xmlns="http://www.w3.org/2000/svg" width="250" height="250" viewBox="0 0 800 800" class="center">
	<circle id="ext-circle" class="logo-circle" cx="400" cy="400" r="350"/>
	<path id="inr-cross" class="logo-cross" d="M510.92,599.93c0-14.49,0-28.73,0-43.47c-14.99,0-29.64,0-44.63,0c0-15.04,0-29.58,0-44.61
		c-14.69,0-29.04,0-43.74,0c0-15.03,0-29.57,0-44.47c-14.69,0-29.05,0-43.91,0c0,14.52,0,29.17,0,44.16c-15.04,0-29.58,0-44.63,0
		c0,14.98,0,29.63,0,44.77c-15.14,0-29.8,0-44.79,0c0,14.74,0,28.98,0,43.55c-29.89,0-59.43,0-89.23,0c0-29.45,0-58.88,0-88.81
		c14.58,0,29.23,0,44.38,0c0-14.84,0-29.19,0-43.88c15.04,0,29.59,0,44.63,0c0-14.98,0-29.63,0-44.61c14.74,0,28.99,0,43.59,0
		c0-14.69,0-29.04,0-43.89c-14.23,0-28.59,0-43.28,0c0-15.03,0-29.57,0-44.61c-14.98,0-29.64,0-44.79,0c0-14.84,0-29.19,0-43.88
		c-15.04,0-29.59,0-44.46,0c0-30.17,0-60,0-90.09c29.47,0,58.91,0,88.85,0c0,14.58,0,29.22,0,44.37c15.14,0,29.8,0,44.79,0
		c0,15.04,0,29.58,0,44.61c14.98,0,29.64,0,44.63,0c0,15.03,0,29.57,0,44.47c14.69,0,29.05,0,43.91,0c0-14.53,0-29.18,0-44.16
		c14.74,0,28.99,0,43.74,0c0-14.98,0-29.63,0-44.77c15.14,0,29.8,0,44.79,0c0-15.03,0-29.57,0-44.44c29.89,0,59.43,0,89.23,0
		c0,29.76,0,59.48,0,89.71c-14.29,0-28.64,0-43.49,0c0,14.84,0,29.19,0,43.88c-15.04,0-29.59,0-44.63,0c0,14.98,0,29.63,0,44.61
		c-15.04,0-29.58,0-44.49,0c0,14.69,0,29.04,0,43.89c14.54,0,29.19,0,44.18,0c0,15.03,0,29.57,0,44.61c14.98,0,29.64,0,44.79,0
		c0,14.84,0,29.19,0,43.88c14.74,0,28.99,0,43.56,0c0,29.87,0,59.41,0,89.2C570.46,599.93,541.02,599.93,510.92,599.93z"/>
</svg>
